HIERARCHY
ROOT root
{
	OFFSET 0.000000 0.000000 0.000000
	CHANNELS 6 Xposition Yposition Zposition Zrotation Yrotation Xrotation
	JOINT lhip
	{
		OFFSET 0.058581 -0.082280 -0.017664
		CHANNELS 3 Zrotation Yrotation Xrotation
		JOINT lknee
		{
			OFFSET 0.043451 -0.386469 0.008037
			CHANNELS 3 Zrotation Yrotation Xrotation
			JOINT lankle
			{
				OFFSET -0.014790 -0.426874 -0.037428
				CHANNELS 3 Zrotation Yrotation Xrotation
				JOINT ltoe
				{
					OFFSET 0.041054 -0.060286 0.122042
					CHANNELS 3 Zrotation Yrotation Xrotation
					End Site
					{
						OFFSET 0.000000 0.000000 0.000000
					}
				}
			}
		}
	}
	JOINT rhip
	{
		OFFSET -0.060310 -0.090513 -0.013543
		CHANNELS 3 Zrotation Yrotation Xrotation
		JOINT rknee
		{
			OFFSET -0.043257 -0.383688 -0.004843
			CHANNELS 3 Zrotation Yrotation Xrotation
			JOINT rankle
			{
				OFFSET 0.019056 -0.420046 -0.034562
				CHANNELS 3 Zrotation Yrotation Xrotation
				JOINT rtoe
				{
					OFFSET -0.034840 -0.062106 0.130323
					CHANNELS 3 Zrotation Yrotation Xrotation
					End Site
					{
						OFFSET 0.000000 0.000000 0.000000
					}
				}
			}
		}
	}
	JOINT lowerback
	{
		OFFSET 0.004439 0.124404 -0.038385
		CHANNELS 3 Zrotation Yrotation Xrotation
		JOINT upperback
		{
			OFFSET 0.004488 0.137956 0.026820
			CHANNELS 3 Zrotation Yrotation Xrotation
			JOINT chest
			{
				OFFSET -0.002265 0.056032 0.002855
				CHANNELS 3 Zrotation Yrotation Xrotation
				JOINT lowerneck
				{
					OFFSET -0.013390 0.211636 -0.033468
					CHANNELS 3 Zrotation Yrotation Xrotation
					JOINT upperneck
					{
						OFFSET 0.010113 0.088937 0.050410
						CHANNELS 3 Zrotation Yrotation Xrotation
						End Site
						{
							OFFSET 0.000000 0.000000 0.000000
						}
					}
				}
				JOINT lclavicle
				{
					OFFSET 0.071702 0.114000 -0.018898
					CHANNELS 3 Zrotation Yrotation Xrotation
					JOINT lshoulder
					{
						OFFSET 0.122921 0.045205 -0.019046
						CHANNELS 3 Zrotation Yrotation Xrotation
						JOINT lelbow
						{
							OFFSET 0.255332 -0.015649 -0.022946
							CHANNELS 3 Zrotation Yrotation Xrotation
							JOINT lwrist
							{
								OFFSET 0.265709 0.012698 -0.007375
								CHANNELS 3 Zrotation Yrotation Xrotation
								End Site
								{
									OFFSET 0.000000 0.000000 0.000000
								}
							}
						}
					}
				}
				JOINT rclavicle
				{
					OFFSET -0.082954 0.112472 -0.023707
					CHANNELS 3 Zrotation Yrotation Xrotation
					JOINT rshoulder
					{
						OFFSET -0.113228 0.046853 -0.008472
						CHANNELS 3 Zrotation Yrotation Xrotation
						JOINT relbow
						{
							OFFSET -0.260127 -0.014369 -0.031269
							CHANNELS 3 Zrotation Yrotation Xrotation
							JOINT rwrist
							{
								OFFSET -0.269108 0.006794 -0.006027
								CHANNELS 3 Zrotation Yrotation Xrotation
								End Site
								{
									OFFSET 0.000000 0.000000 0.000000
								}
							}
						}
					}
				}
			}
		}
	}
}
MOTION
Frames: 17
Frame Time: 0.033333
-1.617543 0.480982 1.020991 82.586572 2.382393 90.278034 0.090385 -0.491980 -4.185006 -4.026145 -4.270440 7.544115 3.731251 9.874626 -7.660567 0.000000 -0.000000 0.000000 -3.024634 0.849862 -11.255349 1.185033 -1.164198 14.122321 1.645746 -5.787185 -6.246047 0.000000 -0.000000 0.000000 -0.856714 -1.026511 5.840211 1.739710 -1.331579 1.803271 1.348214 -0.547454 -3.392473 -0.375666 -2.502666 -6.368836 6.036958 0.321685 -1.695155 -26.808149 -2.178233 10.877375 -51.736110 -6.120954 22.117308 -45.363287 -86.776117 56.299503 26.541964 1.988995 -41.159824 23.829104 5.280223 9.679014 56.273570 3.727936 19.546984 0.952287 69.433417 -1.869874 -3.464728 10.853543 -71.107257 
-1.616216 0.482636 1.020947 82.425990 2.448447 89.818362 -0.009617 -0.258693 -3.490308 -3.964388 -4.368073 7.302760 3.664962 9.868630 -7.766395 0.000000 -0.000000 0.000000 -3.003034 0.253198 -10.631307 1.163263 -0.819636 13.954067 1.715921 -5.339375 -6.246269 0.000000 -0.000000 0.000000 -0.622570 -1.333256 6.167165 1.627976 -1.479740 1.856989 1.403368 -0.565071 -2.840679 -0.261698 -3.195640 -7.043402 6.009705 -0.428617 -1.561036 -26.975836 -2.167967 10.529283 -52.085512 -6.050882 22.290445 -41.564002 -86.694773 52.672393 26.781555 2.375104 -41.373550 23.872625 5.324696 9.112469 56.181075 3.571458 19.560074 0.871198 69.510973 -1.562508 -3.817114 10.465759 -71.179434 
-1.616269 0.483638 1.021190 82.010682 2.439066 89.636574 -0.154520 -0.048412 -3.256799 -3.915735 -4.252778 7.147605 3.761705 9.916647 -7.732468 0.000000 -0.000000 0.000000 -3.025037 0.240521 -10.545764 1.117461 -0.546482 13.956094 1.816436 -5.165368 -6.230657 0.000000 -0.000000 0.000000 -0.615839 -1.530836 6.251517 1.653174 -1.516194 2.077358 1.395092 -0.630450 -2.677019 -0.128347 -3.891360 -7.329318 6.062516 -1.125874 -1.664463 -27.069988 -2.117600 10.506620 -52.462242 -6.100365 22.307184 -36.135077 -86.746303 47.341908 27.045637 2.460785 -41.094796 23.930549 5.330839 8.886227 56.150836 3.662530 19.573679 0.816024 69.454090 -1.581279 -3.759591 10.363088 -70.856502 
-1.617320 0.484766 1.021636 81.438120 2.455638 89.466084 -0.257298 0.158506 -3.085895 -3.899112 -4.020460 7.011934 3.827583 10.000760 -7.714541 0.000000 -0.000000 0.000000 -3.001600 0.495781 -10.591963 1.038047 -0.335635 14.025416 1.861835 -5.060395 -6.172616 0.000000 -0.000000 0.000000 -0.628943 -1.670645 6.554336 1.707871 -1.556758 2.222159 1.428421 -0.698429 -2.611375 0.000211 -4.502313 -7.518636 6.054972 -1.721676 -1.743573 -27.225861 -2.036039 10.387001 -52.744382 -6.066297 22.358521 -30.710445 -86.993489 41.813328 27.245199 2.632401 -40.754191 24.117493 5.460775 8.639353 56.045651 3.747083 19.716107 0.460916 69.429880 -2.156063 -3.788015 10.166914 -70.423943 
-1.617818 0.485291 1.021886 81.044825 2.462709 89.330909 -0.317312 0.320914 -2.913534 -3.887463 -3.911877 6.887728 3.898072 10.121032 -7.690430 0.000000 -0.000000 0.000000 -2.977158 0.639107 -10.568980 1.007198 -0.154969 14.035090 1.850473 -4.973815 -6.115676 0.000000 -0.000000 0.000000 -0.658524 -1.719924 6.717634 1.743941 -1.574559 2.396834 1.453346 -0.698858 -2.647275 0.002508 -4.824456 -7.529714 6.183824 -2.021042 -1.875640 -27.293784 -2.062598 10.392196 -52.828003 -5.999814 22.333133 -28.333783 -87.269487 39.321750 27.304091 2.854128 -40.595031 24.224141 5.603978 8.577111 56.042784 3.742089 19.738787 0.141835 69.445348 -2.684373 -3.566247 10.189835 -70.087460 
-1.618468 0.486004 1.022235 80.524538 2.464512 89.198952 -0.405452 0.526835 -2.712123 -3.860133 -3.751715 6.688727 3.971696 10.281380 -7.650823 0.000000 -0.000000 0.000000 -2.969551 0.781921 -10.567479 0.992830 0.086431 14.014188 1.880801 -4.817481 -6.028440 0.000000 -0.000000 0.000000 -0.671039 -1.767528 6.903480 1.785355 -1.561465 2.538787 1.461812 -0.704506 -2.655333 0.029413 -5.048965 -7.556684 6.197797 -2.351706 -2.021854 -27.366624 -2.066661 10.326949 -52.779464 -5.951437 22.341506 -27.012935 -87.511677 38.041226 27.498599 3.136347 -40.441751 24.397640 5.721790 8.471487 56.032999 3.831894 19.820675 0.204521 69.308419 -2.765233 -3.963261 9.860679 -69.979009 
-1.619757 0.486976 1.022529 80.066227 2.446685 89.184222 -0.520539 0.613011 -2.738654 -3.826858 -3.529506 6.616679 4.032192 10.419423 -7.639130 0.000000 -0.000000 0.000000 -3.000953 0.931169 -10.792003 0.982531 0.254859 14.137925 1.948930 -4.693381 -5.980584 0.000000 -0.000000 0.000000 -0.686539 -1.815643 7.190772 1.840228 -1.529006 2.466375 1.476117 -0.684300 -2.621832 0.011980 -5.227216 -7.670038 6.134463 -2.726775 -2.002875 -27.361935 -2.093442 10.185291 -52.700520 -6.003896 22.419638 -26.699648 -87.753537 37.582046 27.541225 3.314621 -40.269073 24.551916 5.769176 8.306531 56.062159 3.839055 19.954479 -0.099792 69.204654 -3.314606 -4.058826 9.674494 -69.728805 
-1.620985 0.487741 1.022893 79.523329 2.423253 89.135909 -0.613846 0.798777 -2.705014 -3.811189 -3.278759 6.505707 4.096185 10.561771 -7.618123 0.000000 -0.000000 0.000000 -2.994950 1.101828 -10.986807 0.934175 0.443805 14.248942 1.999870 -4.515068 -5.921228 0.000000 -0.000000 0.000000 -0.760159 -1.782065 7.512941 1.913078 -1.454449 2.418831 1.547494 -0.686682 -2.653964 -0.007428 -5.316809 -7.746203 6.104018 -2.977644 -1.995341 -27.324617 -2.239830 10.172568 -52.605372 -6.031570 22.507028 -28.292536 -88.045328 39.123862 27.919175 3.284128 -39.858852 24.684205 5.907321 8.232265 56.143101 3.849331 20.021964 -0.405787 69.005230 -3.890870 -4.246371 9.509015 -69.616485 
-1.622243 0.488604 1.023257 79.083235 2.418729 89.097240 -0.673046 0.992204 -2.739820 -3.824938 -3.079140 6.508980 4.139961 10.650464 -7.634324 0.000000 -0.000000 0.000000 -2.978900 1.232844 -11.168806 0.888167 0.598496 14.347404 2.064020 -4.363237 -5.864682 0.000000 -0.000000 0.000000 -0.772821 -1.774090 7.828761 1.995654 -1.429713 2.377825 1.588033 -0.674075 -2.683544 -0.042808 -5.254794 -7.736265 5.983523 -3.190042 -1.765359 -27.238513 -2.472239 10.143086 -52.456881 -6.201217 22.663186 -34.749829 -88.175094 45.870957 28.586890 3.017552 -39.262255 24.817908 6.078495 8.194885 56.176990 3.844584 20.053193 -0.469086 68.628852 -4.180072 -4.664452 9.389740 -69.788345 
-1.623662 0.489791 1.023703 78.668898 2.435497 88.998976 -0.750363 1.144534 -2.785698 -3.822936 -2.880964 6.648042 4.176569 10.776985 -7.755362 0.000000 -0.000000 0.000000 -2.945614 1.338941 -11.295336 0.827511 0.732845 14.454197 2.134297 -4.196421 -5.864735 0.000000 -0.000000 0.000000 -0.756018 -1.805933 8.246389 2.125973 -1.464322 2.402444 1.668653 -0.641422 -2.752947 -0.135900 -4.986703 -7.571505 5.774757 -3.186283 -1.221350 -27.142452 -2.904597 10.143119 -52.254746 -6.679955 22.889697 -45.679795 -88.401454 56.927475 29.133969 2.700359 -38.654836 25.014147 6.337419 8.206751 56.110644 3.837806 19.919857 -0.510516 67.803612 -4.856387 -4.987262 9.836533 -70.760769 
-1.624391 0.490804 1.023968 78.398991 2.452788 88.881910 -0.837072 1.206336 -2.810047 -3.774055 -2.607843 6.857520 4.222158 10.730716 -7.943744 0.000000 -0.000000 0.000000 -2.944127 1.406580 -11.345303 0.792140 0.743477 14.571324 2.136428 -4.006817 -5.899739 0.000000 -0.000000 0.000000 -0.685139 -1.863020 8.582950 2.223611 -1.489129 2.479128 1.679946 -0.596829 -2.880226 -0.146796 -4.398139 -7.223702 5.481638 -3.023652 -0.294670 -26.970932 -3.217156 10.264834 -52.143849 -7.291992 23.049541 -51.367696 -88.381731 62.802294 29.117484 1.425828 -38.307454 25.253826 6.391908 8.395023 56.102104 4.040422 19.483603 -1.069586 66.440837 -6.143331 -5.359536 11.067413 -71.940319 
-1.624144 0.492121 1.024004 78.308467 2.428690 88.667483 -1.054013 1.253371 -2.632604 -3.616655 -2.509000 6.956266 4.275018 10.621429 -8.036156 0.000000 -0.000000 0.000000 -3.038724 1.218858 -11.189724 0.776283 0.758787 14.686137 2.149828 -3.722661 -6.052119 0.000000 -0.000000 0.000000 -0.478617 -1.971134 8.855321 2.269398 -1.511136 2.802732 1.550368 -0.648828 -3.186683 -0.084534 -3.568768 -6.536578 5.035250 -2.675188 0.979689 -26.834786 -3.444404 10.592648 -51.679021 -7.782405 23.009712 -59.795132 -88.067789 71.954357 26.214869 -0.078884 -39.745601 25.631170 6.256131 8.865407 56.137625 4.237049 18.620583 -3.684202 64.809174 -9.870366 -5.214431 13.257550 -73.793424 
-1.624328 0.492423 1.023906 78.267866 2.391879 88.586564 -1.134595 1.176239 -2.523751 -3.577643 -2.293929 6.884782 4.326020 10.401325 -8.064529 0.000000 -0.000000 0.000000 -3.068552 1.282488 -11.240632 0.699549 0.686586 14.925246 2.112597 -3.640676 -6.222000 0.000000 -0.000000 0.000000 -0.587618 -1.933320 9.000564 2.525583 -1.538030 3.083625 1.518967 -0.787501 -3.339976 0.029510 -2.471820 -5.772140 4.496006 -2.411743 2.501242 -26.682222 -3.359033 10.918148 -51.384483 -8.584517 22.587255 -58.256954 -87.976872 70.686231 22.623141 -2.181134 -41.726784 26.176221 5.600065 9.310498 56.027706 4.496357 17.680947 -8.337260 63.878787 -15.511450 -5.237195 15.126714 -74.820249 
-1.624774 0.492552 1.023827 78.535552 2.398622 88.640096 -1.162681 0.933242 -2.575442 -3.546579 -2.250328 6.817293 4.396686 10.179583 -8.002300 0.000000 -0.000000 0.000000 -3.083897 1.265894 -11.406001 0.676387 0.594133 15.162596 2.080617 -3.799596 -6.314092 0.000000 -0.000000 0.000000 -0.826584 -1.980831 9.026882 2.942010 -1.815352 3.301782 1.571782 -0.889693 -3.195619 0.001651 -1.291835 -4.907700 4.108736 -1.939544 3.824841 -26.378566 -2.959188 10.844707 -51.716853 -9.294342 22.223491 -62.401196 -88.109270 74.780515 20.585733 -2.662275 -44.168495 26.521102 4.492047 9.330616 55.826916 4.796231 16.792286 -14.488408 63.814987 -22.069171 -4.949940 15.192363 -74.299929 
-1.625320 0.493116 1.023808 78.996336 2.470591 88.767203 -1.173995 0.753741 -2.788341 -3.461256 -2.339086 6.853727 4.416279 9.806838 -7.930348 0.000000 -0.000000 0.000000 -3.061200 1.109346 -11.620643 0.647425 0.414740 15.348745 2.090763 -3.961980 -6.375006 0.000000 -0.000000 0.000000 -0.987082 -2.154212 9.059986 3.351572 -2.197166 3.395811 1.721211 -0.993100 -2.908628 -0.205051 -0.320138 -3.914823 3.623874 -1.044813 5.236103 -26.191785 -2.327804 10.663087 -52.552670 -9.646477 21.827377 -68.404707 -88.664958 80.650386 20.572677 -2.477515 -44.421162 26.544316 3.456298 9.051575 55.222633 4.988092 15.589737 -22.573816 64.244931 -31.121059 -5.139914 15.230404 -74.417652 
-1.625876 0.494148 1.023972 79.273865 2.524060 88.917769 -1.239292 0.761487 -3.074713 -3.383881 -2.498895 6.971714 4.385880 9.423932 -7.892754 0.000000 -0.000000 0.000000 -3.068464 0.900747 -11.863296 0.612211 0.269527 15.453829 2.157206 -4.000327 -6.389474 0.000000 -0.000000 0.000000 -0.966835 -2.171172 9.276217 3.648079 -2.518433 3.267914 1.778702 -1.088155 -2.597702 -0.323040 0.721126 -2.843207 2.916163 -0.169193 6.750431 -26.342227 -1.687048 10.276424 -53.217551 -9.416911 21.023984 -57.394337 -89.109585 70.705342 22.682129 -3.005915 -40.536041 26.363156 2.486047 8.381908 54.105528 4.978867 14.297949 -34.126390 65.702466 -41.903226 -6.576224 12.715408 -72.833712 
-1.626250 0.495978 1.024286 79.739686 2.460111 89.120052 -1.544563 0.472714 -3.552692 -3.257775 -2.693028 7.330585 4.587037 9.144112 -7.838125 0.000000 -0.000000 0.000000 -3.314457 0.381525 -11.990618 0.656999 0.149359 15.341356 2.290358 -3.956642 -6.322686 0.000000 -0.000000 0.000000 -0.619295 -1.812473 9.381308 3.881229 -3.275392 3.229820 1.483795 -1.212291 -2.399895 -0.339149 1.659097 -1.373915 2.279112 0.321441 7.796080 -26.831830 -1.374236 9.859331 -53.255053 -8.535496 19.773212 -12.194810 -89.122740 27.329827 23.975274 -3.550098 -36.549787 25.884954 1.630535 7.596908 52.848684 4.560797 12.935651 -51.890540 65.867134 -55.743536 -7.912271 7.803762 -68.244600 
